# xmcd
#
# Track frame offsets: 
#        150
#        45602
#        80627
#        115815
#        170025
#        187277
#        214427
#        240227
#
# Disc length: 3508 seconds
#
# Revision: 5
# Processed by: cddbd v1.5.2PL0 Copyright (c) Steve Scherf et al.
# Submitted via: ExactAudioCopy v0.99pb5
#
DISCID=720db208
DTITLE=Bella Davidovich - Chopin - Complete Works - CD01
DYEAR=1981
DGENRE=Classique
TTITLE0=Ballade N°1  in G minor Op.23
TTITLE1=Ballade N°2  in F major Op.38
TTITLE2=Ballade N°3  in A flat major Op.47
TTITLE3=Ballade N°4  in F minor Op.52
TTITLE4=Impromptu  in A flat major Op.29
TTITLE5=Impromptu  in F sharp major Op.36
TTITLE6=Impromptu  in G flat major Op.51
TTITLE7=Fantaisie-Impromptu  in C sharp minor Op.66
EXTD=YEAR: 1981
EXTT0=
EXTT1=
EXTT2=
EXTT3=
EXTT4=
EXTT5=
EXTT6=
EXTT7=
PLAYORDER=
